<svg id="svg3711" xmlns="http://www.w3.org/2000/svg" viewBox="0 0 173.1 144.5"><style>.st0{fill:#00BEB7;} .st1{fill:none;}</style><path id="path2997" class="st0" d="M0 144.1h2.6V0H0v144.1z"/><g id="g2999"><path class="st1" d="M-21.6 162.6h216.4V-18.04H-21.6z"/><g id="g3001"><g id="g3007"><path id="path3009" d="M18.8 75.6h5c2 0 7.5-.62 7.5-8.87 0-5.37-2-8.62-7.5-8.62h-5v17.5zm-3-19.87h7.75c6.88 0 10.75 3.5 10.75 10.63 0 7.5-3.25 11.75-10.75 11.75H15.8V55.8z"/></g><g id="g3011"><path id="path3013" d="M48.14 68.45c-.12-2.5-2-4.62-4.62-4.62-2.75 0-4.5 2.12-4.63 4.62h9.2zm2.5 4.5c-.75 3.63-3.25 5.5-6.87 5.5-5.13 0-7.63-3.62-7.75-8.5 0-4.87 3.25-8.5 7.62-8.5 5.75 0 7.5 5.38 7.38 9.25H38.9c-.13 2.88 1.5 5.38 5 5.38 2.24 0 3.74-1.13 4.24-3.13h2.5z"/></g><g id="g3015"><path id="path3017" d="M60.74 63.87c-3.63 0-5 3.12-5 6.12 0 3.2 1.5 6.1 5.12 6.1 3.63 0 4.88-3.2 4.88-6.3 0-3-1.63-6-5-6m-7.5-1.8h2.62v2.2c.88-1.8 3-2.6 5.13-2.6 5 0 7.5 4 7.5 8.5 0 4.6-2.5 8.5-7.4 8.5-1.6 0-4-.7-5.3-2.5v8.3h-2.6V62z"/></g><g id="g3019"><path id="path3021" d="M80.97 69.74c-1 .75-3 .75-4.88 1.12-1.8.38-3.3 1-3.3 2.88 0 1.75 1.5 2.37 3.1 2.37 3.5 0 5-2.2 5-3.6v-2.7zm4.25 8.37c-.5.3-1.13.5-1.88.5-1.37 0-2.25-.7-2.25-2.5-1.5 1.8-3.5 2.5-5.8 2.5-3 0-5.4-1.3-5.4-4.5 0-3.6 2.7-4.5 5.5-5 3-.6 5.5-.3 5.5-2.3 0-2.4-1.9-2.7-3.7-2.7-2.3 0-3.9.8-4 3.1h-2.6c.1-4 3.2-5.3 6.8-5.3 2.8 0 6.1.6 6.1 4.5v8.1c0 1.3 0 1.9.8 1.9.2 0 .5 0 .8-.1-.3-.1-.3 2-.3 2z"/></g><g id="g3023"><path id="path3025" d="M87.1 61.9h2.5v3.37c1.26-2.63 3.13-3.88 6-3.75v2.87c-4.24 0-5.87 2.5-5.87 6.5v7.2H87.1V61.9z"/></g><g id="g3027"><path id="path3029" d="M102.08 61.9h3.25v2.37h-3.25V74.4c0 1.24.38 1.5 2 1.5h1.25v2.37h-2c-2.75 0-3.87-.63-3.87-3.5V64.4H96.7V62h2.76v-4.88h2.62v4.75z"/></g><g id="g3031"><path id="path3033" d="M107.3 61.9h2.5v2.37c1.25-1.88 3-2.75 5.25-2.75 2 0 3.75.75 4.5 2.75 1.13-1.75 3-2.75 5.13-2.75 3.25 0 5.37 1.37 5.37 4.75v11.87h-2.62V67.52c0-2-.5-3.63-3.13-3.63-2.62 0-4.25 1.6-4.25 4.1v10.1h-2.62V67.5c0-2.14-.63-3.64-3-3.64-3.13 0-4.38 2.86-4.38 4.1V78.1h-2.62V61.9z"/></g><g id="g3035"><path id="path3037" d="M144.58 68.45c-.12-2.5-2-4.62-4.62-4.62-2.75 0-4.5 2.12-4.63 4.62h9.25zm2.5 4.5c-.75 3.63-3.25 5.5-7 5.5-5.12 0-7.62-3.62-7.75-8.5 0-4.87 3.25-8.5 7.63-8.5 5.75 0 7.5 5.38 7.37 9.25H135.2c-.12 2.88 1.5 5.38 5 5.38 2.26 0 3.76-1.13 4.26-3.13h2.62z"/></g><g id="g3039"><path id="path3041" d="M149.6 61.9h2.5v2.62h.13c1.12-2 3-3 5.25-3 4.25 0 5.62 2.5 5.62 5.87V78h-2.62V67c0-2-1.25-3.25-3.25-3.25-3.25 0-4.75 2.12-4.75 5.12V78h-2.63V61.9z"/></g><g id="g3043"><path id="path3045" d="M169.9 61.9h3.24v2.37h-3.25V74.4c0 1.24.3 1.5 2 1.5h1.2v2.37h-2c-2.8 0-3.9-.63-3.9-3.5V64.4h-2.8V62h2.7v-4.88h2.6v4.75z"/></g><g id="g3047"><path id="path3049" d="M16.48 97.22h-2.75v-2.38h2.75v-2.37c0-2.63 1.63-4 4.5-4 .5 0 1.25.12 1.75.25v2.37c-.5-.2-1-.3-1.5-.3-1.25 0-2 .4-2 1.9v2.2h3.13v2.3h-3.13v13.9H16.6v-14z"/></g><g id="g3051"><path id="path3053" d="M30.64 109.12c2.75 0 5-2.25 5-6.13 0-4-2.25-6.2-5-6.2s-5 2.2-5 6.1c-.12 4 2.13 6.1 5 6.1m0-14.7c5.13 0 7.88 3.7 7.88 8.5s-2.75 8.5-7.88 8.5c-5.12 0-7.87-3.8-7.87-8.5s2.75-8.5 7.87-8.5"/></g><g id="g3055"><path id="path3057" d="M40.88 94.87h2.5v3.37c1.25-2.62 3.12-3.87 6-3.75v2.8c-4.25 0-5.88 2.5-5.88 6.5v7.2h-2.62V94.8z"/></g><g id="g3059"><path id="path3061" d="M80.2 111.1h-3.1l-5.14-18.9-5.13 18.87H63.7L57.97 88.7h3l4.37 18.62h.13l5-18.62h3.25l5 18.62 4.5-18.62h3l-6 22.37z"/></g><g id="g3063"><path id="path3065" d="M93.87 109.12c2.75 0 5-2.25 5-6.13 0-4-2.25-6.2-5-6.2s-5 2.2-5 6.1c-.12 4 2.13 6.1 5 6.1m0-14.7c5.13 0 7.88 3.7 7.88 8.5s-2.75 8.5-7.88 8.5c-5.12 0-7.87-3.8-7.87-8.5s2.75-8.5 7.87-8.5"/></g><g id="g3067"><path id="path3069" d="M104.1 94.87h2.5v3.37c1.26-2.62 3.13-3.87 6-3.75v2.8c-4.24 0-5.87 2.5-5.87 6.5v7.2h-2.62V94.8z"/></g><g id="g3071"><path id="path3073" d="M114.2 88.68h2.62v13.38l7.37-7.13h3.6l-6.4 5.88 6.9 10.4h-3.4l-5.5-8.5-2.5 2.4v6.1h-2.6V88.7z"/></g><g id="g3075"><path id="path3077" d="M148.03 93.42c0-1.25-1-2.37-2.63-2.37-1.25 0-2.62.75-2.62 2.37 0 1.38 1.25 2.63 2.12 3.88 1.38-.75 3.13-2 3.13-3.88m-3.88 6.88c-2.12 1.25-3.87 2.37-3.87 5 0 2.25 2.12 3.75 4.25 3.75 2 0 3.62-1 4.75-2.63 0 .13-5.13-6.12-5.13-6.12zm6.63 8c-1.38 2.12-3.88 3.12-6.38 3.12-6 0-7-4.25-7-6.12 0-3.5 2.38-5.25 5.25-6.75-1.25-1.75-2.5-3-2.5-5.25 0-2.5 1.88-4.63 5-4.63 2.75 0 5.38 1.5 5.38 4.63 0 2.62-2 4.62-4.25 5.75l4 4.87c.37-1.12.62-2.25.75-3.5h2.5c-.25 2.63-.63 3.5-1.5 5.5l4.37 5h-3.5c.25.25-2.12-2.62-2.12-2.62z"/></g><g id="g3079"><path id="path3081" d="M18.8 132.4h5.88c3.37 0 4.87-1.5 4.87-4.13s-1.5-4.13-4.87-4.13H18.8v8.25zm-3-10.76h9.88c4.5 0 6.87 2.5 6.87 6.63 0 4.12-2.37 6.62-6.87 6.62H18.8v9.1h-3v-22.4z"/></g><g id="g3083"><path id="path3085" d="M45.62 134.4c-.13-2.5-2-4.62-4.63-4.62-2.8 0-4.5 2.12-4.7 4.62h9.2zm2.5 4.5c-.75 3.63-3.25 5.5-7 5.5-5.13 0-7.63-3.62-7.75-8.5 0-4.87 3.25-8.5 7.62-8.5 5.7 0 7.5 5.38 7.3 9.25H36.2c-.12 2.88 1.5 5.38 5 5.38 2.25 0 3.75-1.13 4.25-3.13h2.6z"/></g><g id="g3087"><path id="path3089" d="M50.64 127.84h2.5v2.62c1.12-2 3-3 5.25-3 4.2 0 5.6 2.5 5.6 5.88v10.62h-2.6v-11c0-2-1.3-3.25-3.3-3.25-3.3 0-4.8 2.2-4.8 5.2v9.1h-2.6v-16.1z"/></g><g id="g3091"><path id="path3093" d="M69 138.95c.14 2.38 2.14 3.13 4.4 3.13 1.6 0 3.86-.38 3.86-2.38 0-2.12-2.62-2.37-5.25-3-2.6-.62-5.2-1.5-5.2-4.62 0-3.25 3.3-4.63 6-4.63 3.7 0 6.4 1.13 6.7 5.13h-2.7c-.2-2.13-2-2.75-3.7-2.75-1.6 0-3.5.5-3.5 2.12 0 1.88 2.9 2.25 5.3 2.88 2.7.62 5.3 1.5 5.3 4.62 0 3.88-3.6 5.13-6.8 5.13-3.6 0-6.7-1.5-6.9-5.5H69z"/></g><path id="path3095" d="M82.4 127.84h2.64v16.25H82.4v-16.3zm2.76-2.87h-2.62v-3.25h2.62v3.25z"/><g id="g3097"><path id="path3099" d="M95.5 142.1c2.75 0 5-2.26 5-6.13 0-4-2.25-6.13-5-6.13s-5 2.25-5 6.13c-.12 4 2.13 6.12 5 6.12m0-14.7c5.13 0 7.88 3.7 7.88 8.5s-2.75 8.5-7.88 8.5c-5.12 0-7.87-3.8-7.87-8.5s2.75-8.5 7.87-8.5"/></g><g id="g3101"><path id="path3103" d="M105.78 127.84h2.5v2.62h.13c1.2-2 3-3 5.3-3 4.3 0 5.6 2.5 5.6 5.88v10.62h-2.6v-11c0-2-1.2-3.25-3.2-3.25-3.2 0-4.7 2.2-4.7 5.2v9.1h-2.6v-16.1z"/></g><g id="g3105"><path id="path3107" d="M124.16 138.95c.12 2.38 2.12 3.13 4.37 3.13 1.63 0 3.88-.38 3.88-2.38 0-2.12-2.6-2.37-5.2-3-2.6-.62-5.2-1.5-5.2-4.62 0-3.25 3.3-4.63 6-4.63 3.7 0 6.4 1.13 6.7 5.13H132c-.24-2.13-2-2.75-3.74-2.75-1.63 0-3.5.5-3.5 2.12 0 1.88 2.87 2.25 5.25 2.88 2.7.62 5.3 1.5 5.3 4.62 0 3.88-3.6 5.13-6.8 5.13-3.6 0-6.7-1.5-6.8-5.5h2.8z"/></g></g></g><g id="g3551"><g id="g3111"><path id="path3113" d="M36.75 7.7c-.28.4-.42.7-.42 1.13 0 .42.42.57.57 1 .14-.43.42-.72.42-1.15 0-.28-.57-.7-.57-1"/></g><g id="g3115"><path id="path3117" d="M43.2 7.7c.28.4.42.7.42 1.13 0 .42-.43.57-.57 1-.14-.43-.43-.72-.43-1.15 0-.28.43-.7.57-1"/></g><g id="g3119"><path id="path3121" d="M33.05 7.4c.28 0 .43-.14.43-.42 0-.3-.15-.43-.43-.43-.3 0-.43.14-.43.43 0 .14.14.43.43.43"/></g><g id="g3123"><path id="path3125" d="M33.34 8.03c0-.3-.14-.43-.43-.43-.2 0-.4.14-.4.43s.2.43.5.43c.2 0 .5-.15.5-.43"/></g><g id="g3127"><path id="path3129" d="M33.55 9.08c0-.28-.14-.42-.43-.42s-.43.14-.43.42c0 .3.1.43.4.43s.4-.1.4-.4"/></g><g id="g3131"><path id="path3133" d="M35.46 5.33c.28 0 .42-.14.42-.43 0-.28-.14-.42-.42-.42-.3 0-.43.14-.43.42 0 .15.14.43.43.43"/></g><g id="g3135"><path id="path3137" d="M34.37 5.67c.3 0 .43-.15.43-.43 0-.3-.14-.43-.43-.43-.28 0-.42.2-.42.5 0 .2.14.5.42.5"/></g><g id="g3139"><path id="path3141" d="M33.52 6.4c.3 0 .43-.13.43-.42 0-.28-.14-.42-.43-.42-.28 0-.42.14-.42.42 0 .15.14.43.42.43"/></g><g id="g3143"><path id="path3145" d="M36.6 5.44c.28 0 .42-.15.42-.43s-.14-.4-.43-.4c-.3 0-.5.2-.5.5 0 .2.1.5.4.5"/></g><g id="g3147"><path id="path3149" d="M37.67 5.75c.3 0 .43-.14.43-.43 0-.28-.14-.43-.43-.43-.28 0-.43.1-.43.4 0 .1.15.4.43.4"/></g><g id="g3151"><path id="path3153" d="M38.7 6.23c.27 0 .4-.15.4-.43 0-.3-.13-.43-.4-.43-.3 0-.44.14-.44.43 0 .14.14.43.43.43"/></g><g id="g3155"><path id="path3157" d="M46.45 6.97c0 .3.14.43.43.43.28 0 .43-.14.43-.43s-.1-.43-.4-.43c-.3 0-.4.15-.4.43"/></g><g id="g3159"><path id="path3161" d="M47.03 7.6c-.3 0-.43.14-.43.42 0 .3.14.43.43.43.28 0 .43-.14.43-.43 0-.28-.3-.43-.43-.43"/></g><g id="g3163"><path id="path3165" d="M46.82 8.65c-.3 0-.43.14-.43.43 0 .28.1.42.4.42.3 0 .4-.14.4-.42 0-.3-.3-.43-.5-.43"/></g><g id="g3167"><path id="path3169" d="M44.48 5.33c.28 0 .43-.14.43-.43 0-.28-.1-.42-.4-.42-.3 0-.4.14-.4.42 0 .15.2.43.5.43"/></g><g id="g3171"><path id="path3173" d="M45.56 5.67c.28 0 .43-.15.43-.43 0-.3-.2-.43-.5-.43s-.5.2-.5.5c0 .2.1.5.4.5"/></g><g id="g3175"><path id="path3177" d="M46.4 6.4c.3 0 .44-.13.44-.42 0-.28-.15-.42-.43-.42s-.4.14-.4.42c0 .15.2.43.5.43"/></g><g id="g3179"><path id="path3181" d="M43.34 5.44c.3 0 .43-.15.43-.43s-.14-.4-.43-.4c-.28 0-.43.2-.43.5 0 .2.2.5.5.5"/></g><g id="g3183"><path id="path3185" d="M42.26 5.75c.3 0 .43-.14.43-.43 0-.28-.2-.43-.5-.43s-.5.1-.5.4c0 .1.1.4.4.4"/></g><g id="g3187"><path id="path3189" d="M40.8 5.8c0 .28.16.42.44.42.3 0 .43-.14.43-.43 0-.3-.14-.5-.43-.5-.28 0-.43.1-.43.4"/></g><g id="g3191"><path id="path3193" d="M39.22 8.14h.43V6.3c-.14 0-.28-.15-.43-.15v2z"/></g><g id="g3195"><path id="path3197" d="M40.7 6.13c-.13.14-.28.14-.42.14v1.86h.43v-2z"/></g><g id="g3199"><path id="path3201" d="M39.7 4.07V2.93c-.58.14-1 .57-1.15 1.14h1.14z"/></g><g id="g3203"><path id="path3205" d="M40.25 4.07h1c-.14-.57-.57-1-1-1.14v1.14z"/></g><g id="g3207"><path id="path3209" d="M38.63 4.6c.14.58.7 1 1.3 1 .7 0 1.13-.42 1.27-1h-2.57z"/></g><g id="g3211"><path id="path3213" d="M40.72 2.8c-.3-.3-.57-.58-.57-1 .28 0 .7.28 1 .57V.8c-.3.28-.58.57-1 .57 0-.43.28-.72.57-1.14H39.3c.27.42.56.7.56 1.14-.3 0-.7-.3-1-.57v1.57c.3-.3.57-.57 1-.57 0 .42-.3.7-.57 1h1.4z"/></g><g id="g3215"><path id="path3217" d="M42.32 32.68c-1.43-.28-3-1-4.57-1.56 0-.3-.14-.72-.28-.86-.3-.3-.57-.43-.86-.43-.1 0-.2 0-.4.14-.3-.14-.4-.42-.5-.7-.5-.72-1-1.44-1.2-2.3-.1-.56-.3-1-.4-1.56-.1.5-.5 1-1.4 1 0-.1 0-.2-.1-.2-.3.3-.6.6-1.3.3.2.6.3 1.2.6 1.7.4 1.3 1.1 2.3 2 3.3l.9.9v.2c0 .3.3.9.7 1 .4.2.7.2 1.1-.1.7.3 1.6.7 2.5 1 1 .3 2 .5 2.9.5.8 0 1.6-.3 2.5-.9.3-.3.7-.4.8-.7l.2-.1c-.9.2-1.9-.1-2.7-.3m-5-2.1l-.2-.1c-.3-.1-.4-.1-.7 0l-.3.3-.1.2.2.1c.3.3.3.5.3.6l-.2.2c-.1 0-.2 0-.5-.1H36v.3l-.1.2c-.13.1-.13.4-.13.4v.1c0 .2.1.3.24.3.2.2.3.2.5.3-.3.2-.5.2-.7 0-.4-.1-.6-.5-.6-.8 0-.3.2-.7.5-1.1-.1-.1-.1-.3-.1-.4.2 0 .3 0 .5.2.2-.1.7-.7 1.3-.7.3 0 .4.1.7.3.2.2.3.3.3.6-.3-.3-.4-.3-.4-.4m.9 2.7c-.3 0-.6-.3-.6-.6 0-.2.3-.5.6-.5s.6.3.6.6-.3.6-.6.6m2.6.7c-.3 0-.6-.3-.6-.5 0-.3.3-.6.5-.6s.6.3.6.5c-.1.5-.3.6-.6.6"/></g><g id="g3219"><path id="path3221" d="M41.46 36.73h-.28v-1.57c-.72 0-1.57-.14-2.43-.43v2h-.28c-.57 0-1 .43-1 1 0 .43.28.85.43 1 .14-.3.14-.43.28-.43.3 0 .14 1.43 1 1.43V40c0 .44.28.72.7.72s.73-.28.73-.7v-.3c.9 0 .8-1.42 1-1.42.2 0 .3.14.5.43.3-.3.5-.57.5-1-.1-.57-.4-1-1-1M40 40.3c-.15 0-.44-.15-.44-.43 0-.14.15-.43.43-.43.1 0 .4.14.4.43 0 .28-.2.43-.5.43m2-2.14c-.2-.15-.3-.3-.5-.3-.6 0-.3 1.44-1 1.44-.3 0-.4-.15-.4-.43 0-.14.1-.3.1-.43 0-.14-.2-.28-.3-.28-.2 0-.3 0-.3.28 0 .14.1.3.1.43 0 .14-.2.43-.4.43-.7 0-.4-1.43-1-1.43-.2 0-.3.14-.4.3-.2-.16-.2-.44-.2-.6 0-.27.1-.7.7-.7.7 0 .5 1 1 1 .1 0 .3-.14.3-.3 0-.27-.6-.56-.6-.98 0-.5.4-.8.8-1.2.4.3.9.7.9 1.1 0 .4-.6.7-.6 1 0 .1.1.3.3.3.3 0 .1-1 1-1 .4 0 .7.4.7.7-.3.1-.3.4-.5.6"/></g><g id="g3223"><path id="path3225" d="M60.7 38.7c0-.14-.14-.14-.14-.14-1.85.57-4.28-1-6.56-2.57-2-1.3-3.7-2.6-5.28-2.6-.57 0-1.14.1-1.57.4-.57.3-1 .7-1.28 1.4-.3.7-.57 1.1-.72 1.4-.28.4-.42.7-.42 1.1 0 .3.14.5.42.8.3.3.57.4 1 .7.14 0 .14.1.3.1.42.1.56.3.7.5-.7.2-1.7.5-2.85.8-1.3.3-2.57.3-4.14.3s-2.85-.2-4.14-.3c-1.14-.2-2.14-.5-2.85-.9 0-.3.28-.5.7-.8.15 0 .15-.2.3-.2.43-.2.7-.5 1-.6.28-.3.42-.4.42-.9 0-.4-.2-.7-.5-1.2-.3-.3-.5-.8-.7-1.4-.3-.6-.7-1.1-1.3-1.4-.5-.3-1-.4-1.6-.4-1.6 0-3.5 1.3-5.3 2.5-2.3 1.6-4.7 3.1-6.6 2.6-.2 0-.2 0-.2.1s0 .1.1.3c.5.3 1.1.7 1.5 1 .7.5 1.3 1 2 1s1.4-.3 2.3-.7l2.3-1.5c1.5-1 3.1-2.2 4.5-2.3l-.5.4c-.5.4-.9.7-.9 1.4 0 .6.1.8.4 1.4.1.1.1.3.3.5.1.4.3.7.3 1 0 .1.1.4.1.6.1.3.3 1 1.4 1.5 1.3.7 3.4 1 6.4 1s5.3-.3 6.4-1c1.1-.5 1.3-1.2 1.4-1.5 0-.2.2-.4.2-.5.1-.4.1-.7.3-1 .1-.3.3-.4.3-.7.3-.4.4-.7.4-1.3 0-.7-.4-1-.9-1.4l-.5-.4c1.4.2 3 1.2 4.6 2.3.7.6 1.5 1.1 2.3 1.4.8.5 1.6.7 2.3.7.7 0 1.4-.5 2-1 .4-.4 1-.8 1.5-.9.1-.2.1-.3.1-.3"/></g><g id="g3227"><path id="path3229" d="M49.18 23.34c-.15-.14-.57-.43-.72-.86-.28-.42-1.14-2.28-1.28-2.56-.14-.15-.14-.43-.14-.57 0-.15.14-.3.14-.43.14-.15.28-.3.43-.43 0-.2.2-.2.2-.3-.3-.6-.7-1-1.1-1.6-.5-.6-1.1-1.2-1.8-1.6.5-.3.7-.6.7-1.2 0-.3-.1-.6-.4-.9.5-1.3 1.2-2.7 1.7-3.5L45.5 9c.27.43.27 1 .27 1.43-.28-.3-.57-.6-.7-1 0 .4-.3 1-.44 1.26.3-.2.72-.3 1-.2-.13.3-.7.7-1.56.5-.43-.2-.86-.3-.86-.7 0-.2.2-.5.5-.5s.3.4.2.5c.3-.2.7-1.3.1-1.4-.4-.2-.8.4-1 1-.1-.6-.3-1.2-.7-1-.5 0-.4 1.1-.1 1.3 0-.5.3-.6.5-.6s.3.1.3.4c0 .3-.6.6-1 .6-.6 0-1.4-.2-1.6-1.2.3 0 .9.2 1.2.7 0-.6-.1-1 0-1.7-.3.4-.7.5-1.1.7.1-.5.4-.9.9-1.2H39c.42.3.85.7.85 1.1-.3 0-.9-.3-1-.7V10c.26-.3.7-.54 1.1-.7-.2 1-1 1.16-1.6 1.16-.55 0-1-.2-1-.6 0-.3.16-.46.3-.46.15 0 .4.16.4.6.2-.3.46-1.3-.1-1.3-.44 0-.7.4-.7 1-.16-.5-.6-1-1-1-.6.1-.16 1.1.1 1.4-.12-.16 0-.6.16-.6.3 0 .5.3.5.44 0 .25-.5.54-.9.7-.8.13-1.2-.3-1.5-.6.4-.1.7-.1 1 .1-.1-.4-.4-1-.4-1.3-.1.4-.4.7-.7 1-.1-.3 0-.9.3-1.4l-1.2.6c.6.7 1.3 2.1 1.7 3.4-.2.15-.4.44-.4.86 0 .6.5.9.7 1.18-.7.45-1.2 1-1.8 1.6-.8 1-1.5 2-2 3.3.2.15.9 1 1.2 1.15.3.43.5.7.5 1.14 0 .52.1.7.4 1.1.2.14.3.6.3.9h6v6.7c-.3 0-.4.1-.7.3.7.2 1.4.5 2 .7 0-.5.2-.7.4-1 0 0-.8-.2-1.4-.2v-6.7h6c0 .9-.1 1.9-.4 2.6-.2.83-.7 1.7-1.2 2.3-.5.7-1.3 1.1-2 1.52-.1 0-.1.1-.3.1-.1.2-.1.3-.3.6-.1.1-.1.3-.1.5.3.1.5.1.8.1 2.2.6 2.6.4 2.7.3.5-.4.9-.7 1.3-1.3.9-1 1.6-2 2-3.3.4-1.2.7-2.7.7-4 .2 0 .2 0 .2-.2m-9.4.4H34c0-1 .1-1.8.4-2.7.3-.8.7-1.7 1.3-2.3.56-.7 1.27-1.1 2-1.5.7-.4 1.55-.6 2.3-.6.1 0 .1 7.2.1 7.2zm.1-10c-2 0-3.4.6-4.3 1.1-.4-.3-.7-.6-.7-.9 0-1.2 3.3-1.3 5-1.3 1.7 0 5 .2 5 1.3 0 .3-.1.6-.7.9-.8-.5-2.1-1.1-4.2-1.1m.3 10.2v-7.1c.7 0 1.4.3 2.2.6.7.4 1.5.9 2 1.6.6.7 1 1.4 1.3 2.3.3.8.5 1.8.5 2.7h-6z"/></g><g id="g3231"><path id="path3233" d="M45.27 22.62c.14 0 0 .3 0 .3-.14-1.15-.57-2.15-1.14-3 .14 0 .28-.15.28-.3-.1 0-.2 0-.4.15l-.1-.14-1.3-1.3c-.4-.27-1-.56-1.4-.7 0-.14.2-.14.3 0 0-.14-.1-.3-.3-.3 0 0-.1 0-.1.16 0-.2-.1-.2-.3-.2 0 .1 0 .3.2.3-.1 0-.1 0-.1.1s0 .3.2.3c-.1-.2 0-.3 0-.2v2.3c-.1 0-.3 0-.4.1.2.1.3.1.5.1V23c-.2 0-.2-.13 0-.27-.2 0-.3.14-.3.28l.1.2s-.1.2-.1.3c.1 0 .1 0 .3-.1 0 .2 0 .2.1.2s.3 0 .3-.3c0 .2-.3 0-.3 0H43c0 .2 0 .3.1.5.18-.1.18-.2.18-.4h2c0 .2-.2.2-.2 0 0 .2.2.3.3.3l.17-.1s.13.2.3.2c0-.1 0-.1-.17-.3.17 0 .17 0 .17-.1 0-.3-.13-.4-.3-.4m-1.7-3.1s-.12.2 0 .2c0 0 0 .2.16.2 0 0-.1.1-.1.3h.2v.2h.2c.4.7.7 1.6.9 2.4h-.3c0 .2 0 .3.1.3h-1.4c0-.1 0-.1-.1-.1H43c0-.1 0-.1-.15-.3-.15.2-.15.2-.15.3 0-.1-.14-.1-.14 0l-.14.1h-1.3s.16-.1.16-.3c-.15 0-.15 0-.3.2V21c.15 0 .15 0 .15-.16v-.13c.15 0 .15 0 .3-.2-.15-.1-.15-.1-.3-.1.15 0 .15-.1 0-.1L41 20v-1.7s.1.12.2.12V18c.4.18.83.3 1.12.6.43.3.7.58 1.14 1"/></g><g id="g3235"><path id="path3237" d="M44.22 21.98c.14 0 .14-.14.14-.14h-.14s.14 0 0-.15c0-.2-.14-.2-.14 0-.14.1-.57 0-.57-.5l.2.1h.2c.2 0 .2-.2.2-.2 0-.2-.1-.3-.4-.4-.1 0-.1-.2-.1-.2-.1-.2 0-.3-.1-.6v-.3c-.1.1-.1.4.2.7.2.3.6.4.6.6 0 0 0 .1-.1.1H44s-.18 0-.18-.2c-.15-.1-.3-.4-.4-.6-.2-.3-.2-.5-.2-.7.1-.2-.13-.6-.3-.8h-.12c0-.1 0-.1-.13-.1s-.14 0-.14-.2c0 0 0 .1-.13.1H42c-.14 0-.14 0-.14.1v.3-.2H42v.2h-.15v.1h.4c0 .2-.3.2-.3.4l-.16-.2s-.2-.1-.2-.3l-.2-.1c-.1 0-.1-.1-.1-.1l-.2-.2v.3s0-.2-.2-.2c0 0 0-.2-.2 0 0 0 0 .1.1.1h-.2v.2h-.2c-.1.1 0 .3.2.1v.4c0 .1.1.3.4.4-.2.1-.3.1-.3.3-.1 0-.1.1-.3.1l-.2-.2H40h.1s-.13.1 0 .1V20s.15.1.15 0v.1s.2.1.2 0l-.14-.2s0 .1.1 0h.3s0-.14.2-.14h.2s0-.14.1-.14c0 .44.4.44.6.6-.1 0-.3-.15-.4-.15s-.2.1-.4.3c0 .1.2.24.3.4H41c-.13 0-.13-.16-.3-.16 0 0-.1 0-.1.1h.2s-.1 0-.1.2c0 0 0 .2.1 0 0 0 0 .2.1 0h.17s0-.1.16 0h.2c0-.1-.2-.1-.2-.1 0-.1.2-.2.4-.2 0 .2.1.4.4.6.1 0 .3-.1.3-.1v.2h-.2s-.2 0-.2.1h.1c0 .1.1.1.1 0 0 0-.2.1 0 .1s0-.1.1-.1v.1s0 .2.1 0v-.1s.2 0 .2-.1c1.4.8 1.4.8 1.4.6 0 .2.2 0 0 0z"/></g><g id="g3239"><path id="path3241" d="M39.18 25.35c-.14-.42-.3-.7-.72-.7-.28 0-1 .42-2 .42-.42 0-.85-.14-1.13-.43l-.15.3c0-.16-.14-.3-.28-.3-.15 0-.3.14-.3.3s.15.27.3.27c.14 0 .14 0 .14-.1l-.14.3h.14c-.14 1.5.86 3.2 2.7 3.7.3-.1.58 0 .58.3 0 .2-.14.3-.28.3-.15 0-.15 0-.15-.1s.1 0 .2-.1c0-.1 0-.1-.2-.1s-.3.2-.3.3c0 .3.1.5.4.5.1 0 .5-.1.5-.5.1 0 .1 0 .3-.1V29h-.2l.1-3.3h.2c.1 0 .2 0 .2-.14-.2-.15-.3-.15-.3-.15m-3.4.3L38 29c-1.15-.58-2.43-1.7-2.3-3.3m2.3 2.85l-2-3h.44l1.56 2.3c.17.27.17.56 0 .7m.3-1l-1.4-2c.15 0 .3-.15.4-.15l1.17 1.55c-.14.15-.14.43-.14.57m.3-2.16c-.15 0-.3 0-.3.15s.15.2.15.2v.2c0 .2-.14.5-.14.9l-.84-1.3c.4-.1.7-.2 1-.2.13-.1.13-.1.13.3"/></g><g id="g3243"><path id="path3245" d="M38.8 18.85c.4 0 .7-.15.7-.3 0-.42-1.14-.13-1.14-.42 0 0 0-.14.14-.14.57 0 .57-.5 1-.6-.57-.2-.57.3-.86.3.15 0 .15-.2.15-.3-.2.1-.3.1-.5.3v.1c-.2 0-.2.1-.2.1 0 .4 1.3.1 1.3.4-.3.2-.5.2-.7.4-.3-.2-.5-.3-.9-.2 0-.2.1-.3.1-.3s.1 0 .1-.2l-.2-.2h-.3v.2l-.2.1s0 .1-.2.1v.3l-.2-.2V18s0-.14-.2 0h.2-.2v.3c0 .17-.2.17-.2 0-.2.17 0 .17.1.17s0 .17.1.17c-.1 0-.3.14-.3.14h-.1s-.3.1-.3 0v-.1l.2.1s0-.17-.1 0c0 0-.1 0-.1.1 0 0 0 .13.1 0 0 0-.1.13 0 .13 0 0 0 .2.2.2V19s0 .15.2.15c0 0 .1 0 .1-.18v.12s.1 0 .1-.2h.1v.1c0-.2.1-.2.1-.2s.1 0 .1-.2h.1v.2c.1 0 .3-.2.3-.2.3 0-.2-.2.3-.2h.1v.3c-.2.1-.2-.2-.3-.2 0 0-.2 0-.2.1h.1s-.2 0-.2.1c0 0 0 .2.1 0 0 0 0 .2.1 0h.1c.1 0 0-.1.1-.1h.1v-.2h.5v.3H38s-.2 0-.2.1h.2s.1.2.1 0c0 0-.16.2 0 .2v.1h.1V19s.14 0 .14-.14v-.4h-.1c0 .1-.1.1-.2.1 0 0-.2 0 0 0m-1-.56h.12c-.2 0-.2.1-.2 0 0 0-.1 0 0 0m-.1 0s-.1 0 0 0c-.1 0-.1-.2 0 0-.1-.2 0-.2 0 0m-.1.3c0-.2 0-.2 0 0 0-.2 0-.2 0 0 .1-.2 0-.2 0 0 0-.2.1-.2 0-.2h.1l-.1.15c.1-.13.1-.13 0 0 .1 0 .1 0 0 0 .1 0 0 0 0 0"/></g><g id="g3247"><path id="path3249" d="M39.4 20.48c0-.14-.15-.3-.58-.3-.43 0-1.43.16-1.43-.13 0-.14.1-.14.4-.14h.1c.6.2 1.1-.1 1.5 0-.4-.2-.7 0-1.2-.1.3 0 .3 0 .3-.1-.2.2-.6 0-.7.2-.3 0-.6 0-.6.2 0 .5 1.1.2 1.5.2.4 0 .4 0 .4.2s-.5.2-.6.2c-.3 0-1.3-.1-1.9 0 0-.1.1-.1.1-.3 0 0 .1 0 .1-.1V20l-.2-.15H36V20l-.2.12c0 .14 0 .14-.15.14v.2h-.18l-.18-.14c-.2 0-.2-.15-.2-.15V20s0-.12-.2-.12v.2s0-.2-.2-.2c0 0 0-.12-.1 0 0 0 0 .17.2.17v.3c0 .15-.2.15-.2 0-.2.15 0 .3.1.15v.13l.1.13c.1 0 .1.1.1 0v.1c-.2 0-.3.16-.3 0v-.1h-.2.1l.12.1s0-.1-.14 0c0 0-.1 0-.1.18 0 0 0 .14.15 0 0 0-.14.14 0 .14 0 .17 0 .17.14.17V21s0 .14.12.14c0 0 .13 0 .13-.12v.3s.2 0 .2-.1h.2v.25c0-.16.1-.16.3-.16.1 0 .3-.2.4-.3h.2c.5 0 .2-.3.7-.3h.2v.3c-.1.2-.1-.1-.3-.1 0 0-.1 0-.1.2h.2s-.1 0-.1.1c0 0 0 .2.2 0 0 0 0 .2.2 0H37h.16c.13 0 0-.1.13-.1h.1v-.3h.3c.1 0 .3 0 .3-.1h.2v.1H38s-.15 0-.15.1H38c0 .2.13.2.13 0 0 0-.18.2 0 .2s0-.1.1-.1v.2h.16V21s.1 0 .1-.15h.1c-.2 0 0 0 0-.13v-.13s-.2.1-.2 0H38c.7.4 1.14.4 1.14.2m-3.4.3s0-.1 0 0m.7-.7h.14c0 .1 0 .1-.1 0 0 .1 0 .1 0 0m-.15 0c-.15 0-.15 0-.15-.2l.1.1m-.1.3c.13 0 .13 0 0 0 .13-.2.13-.2 0-.2h.13c0 .1 0 .1-.1.1.1 0 .1 0 0 0 .1 0 .1 0 0 0 .1.1.1.1 0 0 0 .1 0 0 0 0m.4.8"/></g><g id="g3251"><path id="path3253" d="M39.2 22.36c0-.15-.14-.15-.57-.15-.43 0-1.7.2-1.7-.1 0-.1.42-.1.7-.1h.14c.57.2 1.15-.1 1.43-.1-.28-.3-.7 0-1.14 0 .28 0 .43 0 .43-.1-.2.2-.8-.1-.9 0-.5 0-.9 0-.9.2 0 .4 1.4.2 1.7.2.4.3.6.3.7.5-.2.1-.5.1-.7.1-.3 0-1.8-.1-2.2 0 0-.1.1-.3.1-.3s.1 0 .1-.1h-.2V22l-.2-.16h-.4v.13l-.2.14c0 .1 0 .1-.2.1v.2s-.2-.1-.3-.1-.2-.1-.2-.1V22s-.1-.16-.1 0v.13s0-.12-.2-.12c0 0 0-.1-.2 0 0 0 0 .2.1.2h-.2v.3c0 .2-.1.2-.1 0-.2.2 0 .3.1.2v.2l.3.3h.2v.2h-.3c-.2 0-.3.2-.3 0V23h.1l.1.15s0-.13-.2 0c0 0-.2 0-.2.15 0 0 0 .14.2 0 0 0-.2.14 0 .14 0 0 0 .15.1.15v-.3s0 .1.1.1c0 0 .1 0 .1-.2v.3s.2 0 .2-.2h.2v.2c0-.2.3-.2.3-.2h.1l.2-.2c.1 0 .1-.2.1-.2.7.2.3-.3 1-.1h.2v.3c-.1.1-.1-.2-.3-.2 0 0-.1 0-.1.1h.1s-.18 0-.18.1c0 0 0 .1.13 0 0 0 0 .1.13 0h.2c.15 0 0-.2.15-.2h.2v-.3h.3c.13 0 .3 0 .3-.2h.3v.2s-.2 0-.2.1h.3s.2.1.2 0c0 0-.2.1 0 .1v.2h.1s.2 0 .2-.2h.1c-.2 0 0 0 0-.2v-.2s-.2.1-.2 0H38c.7-.3 1.14-.3 1.14-.4m-3-.4h.13c-.15.1-.15.1-.15 0 0 .1 0 .1 0 0m-.15 0s0 .1 0 0c-.14 0-.14 0 0 0-.14 0 0 0 0 0m-.14.2c.13 0 .13 0 0 0 .13-.1.13-.1 0-.1h.13c0 .2 0 .2-.14.2.14 0 .14 0 0 0 .14 0 .14.2 0 0 .14.2.14.2 0 0 0 .2 0 .2 0 0"/></g><g id="g3255"><path id="path3257" d="M45 25.5s0-.15 0 0c0-.15-.14-.15 0 0 0-.15 0-.15-.14-.15h-.43c.28 0 .7 0 .7-.14 0-.1-.13-.1-.56-.1-.43 0-1.7.2-1.7-.1 0-.1.42-.1.7-.1h.15c.57.2 1.14-.3 1.42-.1-.43-.1-.7.2-1.14 0 .3 0 .43 0 .43-.1-.14.2-.7-.1-.86 0-.42 0-.85 0-.85.2 0 .5 1.42.2 1.7.2.3 0 .44 0 .44.2s-.3.2-.57.2c-.3 0-1.8-.2-2.2 0 0-.2.1-.3.1-.3s.1 0 .1-.1h-.2l-.2-.1h-.4v.2l-.2.2c0 .1 0 .1-.2.1v.1s-.2-.1-.3-.1-.2-.1-.2-.1V25l-.1-.12v.3s0-.15-.2-.15c0 0 0-.17-.2 0 0 0 0 .1.1.1H40v.2c0 .16-.2.16-.2 0-.15.16 0 .3.14.16v.1l.25.3h.2v.1c0 .1.1.1 0 .1h-.3c-.2 0-.3.1-.3 0V26l.1.13s0-.1-.2 0c0 0-.2 0-.2.18 0 0 0 .2.1 0 0 0-.1.2 0 .2 0 0 0 .2.2.2v-.2s0 .2.2.2c0 0 .1 0 .1-.1v.3s.2 0 .2-.2h.2v.3c0-.2.1-.2.3-.2l.1-.2h.2c.1 0 .1-.1.1-.1.7.1.3-.3 1-.2l.1-.1v.3c-.2.1-.2-.1-.3-.1 0 0-.2 0-.2.1h.1s-.1 0-.1.2c0 0 0 .2.1 0 0 0 0 .2.2 0H42h.14c.2 0 0-.1.2-.1h.2V26h.3c.1 0 .25 0 .25-.14h.3V26h-.2s-.2 0-.2.16h.2s.1.15.1 0c0 0-.2.15 0 .15s0-.1.1-.1v.2h.2V26s.1 0 .1-.13c.7-.15.7-.15.7-.3 0 .15 0 .15 0 0 0 .15 0 .15 0 0 0 .15 0 0 0 0m-3-.85h.1c0 .14 0 .14-.2 0 0 .14 0 .14 0 0m-.2 0s0 .14 0 0c-.17 0 0 0 0 0M41 25s.1 0 0 0c.1 0 .1 0 0 0 .1-.12.1-.12 0-.12h.1c0 .13 0 .13-.1.13.1 0 .1 0 0 0 .1 0 .1.2 0 0 .1.2.1.2 0 0 0 .2 0 .2 0 0m0-.1zm.6.9"/></g><g id="g3259"><path id="path3261" d="M43.17 26.52c.57.14 1.14-.14 1.43-.14-.43-.14-.57.14-1 0 .28 0 .43 0 .43-.14-.15.14-.72 0-.86.28 0-.14 0-.14 0 0-.28-.14-.43-.14-.43.14 0 .43 1 .15 1.43.15.28 0 .28 0 .28.2s-.42.2-.57.2c-.28 0-1.14-.1-1.7 0 0-.1.13-.1.13-.3 0 0 .2 0 .2-.1h-.1l-.1-.1h-.4v.2l-.1.2s0 .2-.1.2v.2h-.1c-.1 0-.1-.1-.1-.1V27s-.1-.15-.1 0c0 0 0-.15-.1-.15 0 0 0-.14-.1 0l.2.15H41v.25c0 .14-.18.14-.18 0-.13.14 0 .3.16.14h.2v.1h-.23c-.16 0-.3.1-.3 0v-.2h-.14l.2.1s0-.1-.1 0c0 0-.1 0-.1.1 0 0 0 .1.2 0 0 0-.1.1 0 .1 0 0 0 .1.2.1v-.3s0 .2.2.2c0 0 .1 0 .1-.1v.3s.2 0 .2-.2h.1v.1c0-.2.2-.2.3-.2.2.1.3-.2.3-.2.1 0 .1-.1.1-.1.3 0 .2-.3.6-.2h.2v.3c-.1.1-.1-.2-.3-.2 0 0-.1 0-.1.1h.2s-.1 0-.1.1c0 0 0 .1.2 0 0 0 0 .1.2 0h.1c.1 0 0-.2.1-.2h.1V27h.3c.1 0 .3 0 .3-.1h.3v.1H44s-.1 0-.1.15h.1s0 .1.1 0l-.2.1s0-.1.1-.1v.2h.1v-.1s.2 0 .2-.2h.13c-.17 0 0 0 0-.15h-.74c.3 0 .7 0 .7-.13s0-.14-.5-.14-1.3.14-1.3-.15h.8m-1.3 0s-.2 0 0 0c-.2 0-.2 0 0 0-.2-.1 0 0 0 0m0 .17c-.2.14 0 .14 0 0 0 .14 0 .14 0 0l-.2.14v-.2c0 .1 0 0 .1 0h-.2c0-.2 0-.2.1 0m.1 0s-.1-.2 0 0c0-.2 0-.2 0 0 0-.2 0 0 0 0"/></g><g id="g3263"><path id="path3265" d="M42.76 28.32c.57.14 1.14-.14 1.43-.14-.5-.14-.8.14-1 0 .2 0 .4 0 .4-.14-.2.14-.7 0-.9.28 0-.14 0-.14 0 0-.2 0-.3 0-.3.14 0 .3 1.3 0 1.3.15s-.3.2-.6.2-.7-.1-1.3 0c0-.1.1-.3.1-.3s.1 0 .1-.1l-.2-.1h-.3v.2l-.2.2s0 .2-.2.2v.3c-.2-.1-.2-.3-.3-.3s-.2-.1-.2-.1v-.1h-.2s0-.1-.2-.1c0 0 0-.1-.2 0h.1-.1v.3c0 .2-.2.2-.2 0-.2.2 0 .2.1.2 0 0 0 .2.1.3 0 .2.1.2.1.2v.2H40v-.1l.15.2s0-.1-.15 0c0 0-.1 0-.1.2 0 0 0 .1.2 0 0 0-.1.1 0 .1 0 0 0 .2.2.2V30s0 .1.16.1c0 0 .15 0 .15-.13v.1s.2 0 .2-.1h.2v.1c0-.14.2-.14.2-.14s.2 0 .2-.1c0 0 .2-.14.2-.3.1 0 .1-.1.3-.1v.1c0 .1.1.1.1.1h-.1c-.1.2-.1-.1-.3-.1 0 0-.1 0-.1.1h.2s-.2 0-.2.2c0 0 0 .15.2 0 0 0 0 .15.2 0h.2c.1 0 0-.14.1-.14h.1V29s0-.3-.1-.43h.4c.2 0 .2.15.2.15-.1 0 0 .15-.1.15l-.1-.14H42v.16h.1s-.13 0 0 .1v.1c.16 0 0-.2 0-.2h.1v-.2h.16s-.13 0-.13-.2c.1 0 .1-.2 0-.2 0-.2-.18-.2-.18-.2h.1c.4 0 .7-.2.7-.3 0-.3-1.3 0-1.3-.2 1 .4 1.1.4 1.25.4m-1 0h.1c0 .1 0 .1-.1 0 0 .1 0 0 0 0m-.2 0c0-.2 0 0 0 0m0 .3c0-.2 0-.2 0 0 0-.2.12-.2 0-.2h.12s-.14 0-.14.2c0 0 0 .2 0 0-.15 0-.15 0 0 0"/></g><g id="g3267"><path id="path3269" d="M21.85 5.82c0-.14-.14-.3-.3-.3-.13 0-.27.16-.27.3s.14.3.28.3c.15 0 .3-.16.3-.3"/></g><g id="g3271"><path id="path3273" d="M21.74 5c0-.16-.14-.3-.3-.3-.13 0-.27.14-.27.3s.14.27.28.27c.15 0 .3-.14.3-.28"/></g><g id="g3275"><path id="path3277" d="M21.92 4.62c.14 0 .28-.15.28-.3s-.14-.27-.28-.27c-.15 0-.3.14-.3.28s0 .3.3.3"/></g><g id="g3279"><path id="path3281" d="M22.75 4.56c.14 0 .3-.14.3-.28 0-.15-.16-.3-.3-.3-.14 0-.3.15-.3.3-.13.14 0 .28.3.28"/></g><g id="g3283"><path id="path3285" d="M26.3 3.98c.15.15.3.15.43 0 .15-.14.15-.28 0-.43-.14-.14-.28-.14-.42 0-.1.15-.1.3 0 .43"/></g><g id="g3287"><path id="path3289" d="M26.24 3.32c.14-.15.14-.3 0-.43-.15-.2-.3-.2-.43 0-.1.1-.1.2 0 .4 0 .1.3.1.5 0"/></g><g id="g3291"><path id="path3293" d="M25.4 3.18c.15-.14.15-.3 0-.43-.14-.14-.28-.14-.42 0-.14.14-.14.3 0 .43 0 .14.28.14.43 0"/></g><g id="g3295"><path id="path3297" d="M24.7 3.7c.14-.14.14-.28 0-.42-.14-.14-.3-.14-.43 0-.14.14-.14.28 0 .43 0 .2.3.2.43 0"/></g><g id="g3299"><path id="path3301" d="M22.7 3.28l.3.57.27-.43v.7c0 .3.15.44.43.44.3 0 .43-.14.43-.43 0-.14-.14-.28-.14-.28l-.5-.43h.5l-.1-.57-.5.28v-.57l-.5.14.4.43-.7.15z"/></g><g id="g3303"><path id="path3305" d="M26.33 4.25c.14.14.14.28.14.43-.14 0-.14-.15-.3-.3v.73c.16-.1.16-.2.3-.2 0 .5-.3.7-.43.7-.14 0-.28-.1-.43-.2 0-.1.2-.3.3-.1 0-.4-.3-.4-.4-.3.2-.4.2-.7-.3-1-.2.5-.1.7.2 1-.3-.1-.5.2-.3.5 0-.3.3-.3.3 0 0 .2-.1.5-.4.6-.4.2-.5-.1-.7-.4.2 0 .3 0 .6.2l-.3-.7c-.1.3-.2.3-.4.4 0-.1.2-.6.2-.6l-.8.3s.5.2.6.3c-.1 0-.3.1-.6 0l.3.7c0-.3.3-.4.3-.4.2.3.2.6-.3.7-.3.2-.6.2-.7 0-.1-.1 0-.4.3-.3 0-.4-.4-.4-.5-.1 0-.4-.2-.7-.6-.8-.1.4 0 .7.5.8-.3 0-.6.2-.1.6 0-.3.3-.3.3-.1.2.2 0 .3-.1.4-.1.2-.4.2-.7-.2h.4l-.6-.7v.5c-.1-.2-.1-.2-.1-.4l-.3.3c.3.2.8.6 1.2 1.2.5-.3 1.5-.7 1.9-1 .6-.3 1.4-.6 2-.7-.2-.8 0-1.3 0-1.7v.4z"/></g><g id="g3307"><path id="path3309" d="M33.2 24.16c.14-.28-.44-.7-.58-1.14 0-.43 0-1-.57-1.57-.57-.57-2.42-2.56-3-3.28.15 0 .43-.14.86.3.2.13.6.56 1 1 .5-1.3 1.2-2.15 2-3.15.2-.15.3-.3.3-.43-.3.1-.8.1-1.1.4 0-.6 0-1-.3-1.3.2-.7 0-1.7-1.7-2.9.9.1 1.5 1 2.2.4-.5 0-.5-1.3-2.8-2.5.9 0 1.5 1.3 2.5.5-.9-.1-1.2-1.7-2.9-2.3.6 0 1.2.2 1.8-.3-.6.1-.8-.4-1.6-.4.3-.8.2-1.2 0-1.8-.4 0-.8.1-1.1.4 0-.5-.4-.5-.9-.5 0 .1.2.4-.1.4-.3 0-1.3.3-2 .5-.7.3-1.5.9-1.8 1-.1.1-.2-.1-.4-.3-.2.3-.5.6-.2.9-.4 0-.9.1-1.3.4 0 .4.4 1 1 1.3-1 1-.1 2-1 2.9 1.3 0 1-1.7 1.7-2 0 1.2-.7 1.4-.7 2.7 0 .7.4 1.4 0 2 1-.3.7-2.6 1.4-3.3.2.4 0 .8-.1 1.1-.4 1.1 0 2.6-.5 3 1.1 0 1.1-1.7 2.1-2.3-.7 1.6-1.5 4.8-2.7 6.6-1.8 2.5-2.8 5.5-4.5 5.5-.7 0-1.3-.4-1.3-1.4 0-2.9 4.9-4.7 4.9-7.7 0-1.3-1.1-1.9-1.7-1.9-.4 0-1 .2-1.4.5-.1-.2-.4-.2-.6-.2-1.7 0-1.3 3-2.7 3 .6.3 1.6-.3 2.2-1.1-.3 2-3.2 1.5-2.9 3.9.4-1.9 5-1.6 5-4.4 0-.3-.2-.6-.5-.9.3-.3.7-.3 1-.3.6 0 1 .5 1 1.2 0 2.6-4.7 4.6-4.7 7.7 0 .6.1 1 .4 1.3-.3.1-.7.1-1-.3 0 .9 1.1 1.3 1.8.9.2 0 .3.1.5.1-.3.6-1 .7-1.3.7 1.1.9 3.3-.3 3.1-1.3 1-.7 1.6-2 2.2-2.8 0 .2-.1.4-.1.6-.7 1.3-1.3 2.4-1.6 4-.1 1.4-.8 2.6-1.8 2.6-.2 0-.6-.3-.7-.2-.3.3 0 .5 0 .8 0 .4-.8.7-.8 2 0 .6.3 1.1.2 1.6.3-.2.7-.7.9-1.3.3 1.6-.7 1.6 0 3 .1-.4.5-.7.8-.4.3.1.1.3 0 .6-.2.1-.45 1.2.55 1.1-.1-.1-.1-.4.3-.4.7-.2.87.1 1.58.1.5 0 .6-.5.9-.5s.3.3.3.4c.57-.2.7-.5.7-.7 0-.3-.3-.6 0-.6.1-.1.8 0 .57.6.3 0 .6-.3.6-.7s-.5-.7-.9-.6c-.18-.3-.47-.4-.9-.4-.7 0-.7.6-1.1.6-.9 0-1.75-1.2-1.75-3 0-1 1.1-1.3 1.82-1.6.7-.3 2.13-1.2 2.84-2.6.57-1 .7-2.3.57-3.6 1.2.6 1.2 1.6 1.2 2.2 0 .9-.4 1.2-.7 1.3-.3.1-.4.1-.4.3 0 .3.2.3.3.4.4.2.3.6.4 1 .2.4.4 1 1.2 1.6v-1.1c.9.4.1 2.1 1.7 2.1-.3-.1-.3-.56 0-.7.2 0 .4.14.7.6.3.4.3.4 1 .4s.5-.26.9-.26.4.4.1.83c.7-.14.87-.7.7-1.3.6-.26.87.16 1 .45.6-.6 0-1.3-.4-1.46 0-.3-.2-.4-.5-.4h-1c-.3 0-.46.4-.7.4-1 0-3-1.9-3-2.6 0-.9 1.82-1.3 1.82-2.6 0-1.5-1.6-2.1-2.9-3.1.47-.6 1.9-.7 2.7-.3.2-.4.5-.3.5-1.2.3.8 0 1.3.3 1.6.3-.3.84-.3.7-1.1.14.6-.28 1.3.14 1.7.14-.4.3-.5.4-.5s.3.1.3.4c0 .7-.9.3-.9 1 0 .3.4.4.4.6 0 .2-.3.6-.7.3.1.3.4.6.7.6.3 0 .7-.3.8-.7.1.4 0 1-.3 1 .3.1 1.1 0 1.1-1 .4.1.7.4.4 1 .4-.2.7-.3.7-.77-.4-.7-.7-.7-.6-1.1M24 9.5c-.4 0-.4-.4-1.1-.53.6-.14 1.3-.43 1.9-.57 0 .42-.18 1.13-.75 1.13m3.14 3.3c-.6.3-1-.3-1.2-.5-.2-.3-.2-.6 0-.7.3-.3.3-.4.1-.7-.2-.3-.6-.2-1-.2.1-.3.1-.56 0-.56-.3 0-.3.53-.5.4-.2 0-.2-.3-.2-.4s.1-.3.3-.45l1.6-.56c.2-.12.3-.12.6 0 .2.17.4.3.3.45-.1.2-.4-.1-.7 0-.1.2 0 .3.3.5-.3.2-.7.3-.6.7.2.3.3.5.6.5.1 0 .3.3.4.6.4.3.4.9-.1 1.2m0-4.5c-.5.3-1 0-1.3-.4.5-.3 1.2-.5 1.7-.8-.3.7 0 1-.5 1.3"/></g><g id="g3311"><path id="path3313" d="M63.8 31.88c0 .72.58 1.3 1.3 1.3.7 0 1.28-.58 1.28-1.3s-.57-1.28-1.3-1.28c-.7-.14-1.27.57-1.27 1.28m.3 0c0-.57.5-1 1-1 .6 0 1 .43 1 1s-.4 1-1 1c-.5 0-1-.43-1-1"/></g><g id="g3315"><path id="path3317" d="M58.77 33.13c-.14.14-.3.28-.3.57 0 .28 0 .43.16.7.14.15.43.3.7.44.3 0 .58 0 .72-.14.3-.15.43-.3.43-.57.14-.43-.28-1-.85-1-.43-.3-.72-.15-.86 0m.57 1.14c-.43 0-.7-.3-.57-.57 0-.15.14-.3.14-.3.2-.13.5-.13.6-.13.3 0 .6.28.6.57 0 .43-.3.57-.7.43"/></g><g id="g3319"><path id="path3321" d="M51.33 14.18c-.43.28-.57.86-.28 1.28.28.3.85.43 1.28 0 .3-.14.43-.42.43-.7 0-.15 0-.44-.14-.58-.15-.14-.3-.3-.43-.3-.5 0-.8.16-.9.3m-.2.7c0-.13.1-.42.2-.56.1-.14.3-.14.6-.14.1 0 .1 0 .3.14s.1.14 0 .3c0 .13-.2.27-.3.42-.3.14-.6.14-.7 0-.2 0-.2 0-.2-.15"/></g><g id="g3323"><path id="path3325" d="M57.18 30.88c-.14.15-.28.43-.28.86 0 .28.14.57.28.85.15.1.3.2.57.2.15 0 .43-.2.58-.3.14-.2.28-.4.28-.9 0-.3-.1-.6-.2-.7-.1-.2-.4-.3-.6-.3-.3-.2-.4 0-.5.1m.5 1.5c-.1 0-.2-.2-.2-.2-.1-.2-.1-.3-.1-.6s.2-.4.3-.6c0 0 .2-.1.3-.1.3 0 .6.3.6.7 0 .3-.1.4-.3.6-.1 0-.3.1-.4.1m0 .3z"/></g><g id="g3327"><path id="path3329" d="M50.58 19.97c-.15.14-.43.14-.43.43-.14.43 0 1 .57 1.28.28.15.57.15.85 0 .15-.14.43-.14.43-.42.15-.15.15-.43 0-.57-.14-.3-.28-.5-.57-.6-.28-.3-.57-.3-.85-.2m.28 1.3c-.28-.2-.57-.6-.43-.8 0-.2.15-.2.3-.3h.56c.1.1.4.2.4.4v.2c0 .1-.2.1-.3.3-.2.1-.4.1-.6 0"/></g><g id="g3331"><path id="path3333" d="M64.77 18.58c.43 1.15 1.28 1.57 2 1.3-1.43-.15-.3-2.72-2.15-2.72h-.28c-.3-.3-.7-.43-1.28-.43-.86 0-2.14.86-2.14 2.42 0 3.43 4 3.86 4 6.85 0 .86-.72 1.43-1.44 1.43-.7 0-1.28-.7-1.85-2-.3-.57-.86-1.28-1.43-2.14.14.1.43.1.57.1.3 0 .43 0 .57-.2.15-.2.3-.3.3-.6s-.15-.6-.3-.9c-.28-.3-.57-.5-.85-.5-.3 0-.5 0-.6.1-.2.1-.3.3-.3.5v.3c-.9-1.2-1.7-2.3-1.7-2.9 0-.6.4-1 .8-1.6l.1.1.1-.2c.1-.1.5-.6 1.1-1.3l.1-.2-.5-.3c.1-.3.3-.6.3-.9.1.6.4.9.8.9-.3-.6.3-1.3-.2-2.7.3.5.8.8 1.1.7-.9-.9.3-1.9-.9-3.6.4.1.6 0 .8-.2-1-.2-.6-1.6-2.4-2 .4-.2.7-.3.7-.6-.4.3-.8-.7-2.6-.6-.2-.6-.8-1.3-1.3-1.6.1.4 0 .8-.2 1.3l-5.1-5c-.2-.2-.3-.2-.3-.2V2L55 7.7c-.3.16-.7.3-1 .44-.3.14-.44.3-.44.6-.9.4-1.6 1-2 1.3-.3.24-.6.24-.3.8.1.3-.14.7.4.4.46-.3 1.46-.9 1.6-.5.14.1-.4.4-.7.5-.3.1-.7.4-.6.5 0 .14.3 0 .3.14s.14.3.3.3c.13 0 .3-.3.4-.13.16.14 0 .7-.1.86.5 0 .8-.5.8-1 0-.4.1-.4.1-.5.15 0 .15.4 0 .7.3 0 .58-.4.58-1.1.1-.1.3-.1.4-.1.14 0 .6.5 1 .5.85 0 1.4-.7 1.4-1 0-.3 0-.6-.1-.7.3.3.4.7.4 1 0 1.3-2.3 1.8-3.1 2.7l-.1.1-1-.4-.1.3v.1c-.16.4-.3 1.1-.4 1.6v.1h.1c-.58.9-1.1 1.7-1.3 2.7l-.7-.7V17c0-.3-.14-.57-.3-.7-.13-.16-.3-.3-.4-.3s-.46 0-.6.14l-.16.12s-.18 0-.18-.16c-.3-.3-.7-.6-1-.9-.1-.15-.3-.15-.4-.15h-.4c-.17 0-.3.14-.46.3-.1.12-.3.26-.6.4l.4.43c0 .15.2.15.2.3.12 0 .12-.15.12-.15.1-.17.3-.17.4-.17.1 0 .3.14.4.3.16.1 1 1.26 1.7 2-.1 0-.1 0-.3.1-.3.15-1 .15-1.3.15-.2 0-.4-.1-.5.3-.1.2-.1.3-.26.5-.1.2-.1.3 0 .6.3.6 1.13 1.9 1.3 2.6.3.6.6.7 1 .9.4.2 1.3.7 1.4.9V24c-.13-.14-.6-.3-.84-.43-.1 0-.3-.12 0-.12.14 0 .9.15 1.3.44-.16-.5-.6-1-.87-1.3-.3-.2-.7-.2-.9 0 0 .1 0 .3-.2.3s-.3-.2-.2-.3c0-.2.3-.2.1-.5 0-.3-.4-.3-.6-.3-.3-.4-.7-1.2-.9-1.3-.1-.3 0-.4 0-.4.3-.2.9.1 1.9.1H51c.1 1.3.6 2.4 2.4 2.8.9.1 1.7.8 2 1.7-3.4 0-4 1.3-4 2.5 0 1.4 1.3 1.4 1.3 2.4S50 30.9 49 31c-.7.1-1.1.3-1.5.5-.3.4-.7.7-1.4 1.3h.6l.46-.6.3-.4c.1 0 0 .1-.14.4l-.43.7c1.7.1 1.8-.6 1.8-.7s-.4-.5-.2-.6c.3-.1.4 0 .7.1.2.3.3.47.7.3l4.1-1.7c.4-.13.3-.4 0-.56-.3-.25-.3-.54-.3-1 0-1.1.7-1.4 1.8-1.4v.6c0 1.7 2.7 3.4 3.4 3.4.2 0 .7-.26.7.9 0 .73.1 1.3 0 2.3-.2.86-.5 1-1 1.43-.6.42-1 1.56-1.3 1.84.3.2.6.2.7-.4.2-.4.3-.8.6-1-.2.6-.4 1.3-.4 1.6.7.1 1.7-.6 1.7-1s-.5-.3-.5-.6c0-.1.1-.3.4-.3.3 0 .4.3.6.3.2-.1.4-.4.4-1.1v-.8.2c.1.1.2.3.5.3.2 0 .5 0 .7-.1.3-.2.4-.4.5-.7V34c0-.16 0-.3-.2-.44s-.3-.3-.5-.3c-.3 0-.6 0-.9.2-.3.13-.4.4-.4.7 0-1-.2-1.86-.2-2.28 0-.55 0-.7-.1-.84s-.4.3-.6.3c-.3 0-1-.74-1-1.45 0-.7.8-1.7.7-2.7 0-.3.1-.5.3-.2.1.3.4.8.7 1.3-.3 1.2 1.2 2.5 2.4 1.5-.6.1-1-.5-1.3-1h.4c.4.5 1.7.4 2.1-.9-.3.3-.7.4-1 .4.4-.5.7-1 .7-1.7 0-3.3-4-3.8-4-6.8 0-1.2 1-1.9 1.7-1.9.3 0 .4.1.6.1-.3.3-.5.7-.5 1.1.15 2.4 4 2.3 4 3.4 1.14-2.7-1.85-2.1-1.85-4.4M54 9.2c.1-.4 0-.8.7-.8.3 0 .57.3 1 .4-.7 0-1.3.16-1.7.44m-3.6 7.3c0 .16-.2.45-.2.45s-.2.1-.3.1c-.3 0-.45-.3-.45-.6 0-.2.14-.5.14-.5s.1-.1.3-.1c.1 0 .1.1.2.1s.1.3.1.4M62 33.3c0-.13.2-.42.5-.42.2-.1.5-.1.6-.1.2 0 .2 0 .3.1.2.1.2.3 0 .3 0 .1-.1.4-.4.4-.3.1-.8.1-.9 0v-.3m-2.4-11.1c0-.2 0-.2.1-.3.1-.2.3-.2.3-.2.1 0 .4.1.6.3.1.2.3.5.3.6 0 .2 0 .2-.2.3-.2.2-.3.2-.3.2-.2 0-.4-.1-.6-.3-.3-.1-.3-.3-.3-.6M53 14.8c.1-.6.54-1.7.54-1.7l.58.26c-.1 0-.4.3-.54.44.16 0 .45.1.6 0l-.3.54c0-.1-.3-.3-.45-.4-.1.44.18.7.47.86.4.1.6.3.7 0 .17-.3-.1-.6-.4-.44 0-.3.18-.4.47-.4.17 0 .3.15.3.44 0-.58.16-1 .7-1.15.17.6 0 .9-.3 1.3.2-.1.47 0 .6.16.16.2.16.5-.13.6 0-.2-.4-.4-.55-.1-.1.3 0 .4.4.6.4.3.7.1 1-.3-.2 0-.5 0-.6.1l.4-.7c0 .2.1.3.3.4 0-.1.1-.4 0-.7l.8.6c-.3 0-.6.3-.6.5.2.1.4 0 .6 0l-.4.7c0-.3-.2-.4-.2-.6-.1.4-.1.7.3 1 .3.1.6.3.7 0 .1-.1-.1-.6-.4-.4 0-.3.1-.4.4-.4.2 0 .3.2.3.5.1-.6.3-.8.9-.8.1.4-.2.9-.6 1.2.2 0 .5 0 .5.2.1.2 0 .5-.3.6 0-.3-.5-.4-.6-.1-.2.1 0 .4.4.6.1.1.5.3.8 0-.1-.1-.4-.1-.6-.1l.4-.6c0 .2.1.5.3.6 0-.3.1-.6 0-.7l.5.5-1.1 1.4-5.9-3.7zm5.54 13.7c-.3.3-.6.4-.85.3-.3-.2-.3-.6 0-.9.3-.3.6-.43.9-.3.1.16.1.6 0 .87M60 26c-.25.3-.54.4-.82.3-.3-.18-.3-.6 0-.9.26-.3.55-.44.83-.3.2.14.2.43 0 .86"/></g></g></svg>